<?xml version="1.0" encoding="utf-8"?>
<!-- Generator: Adobe Illustrator 15.0.2, SVG Export Plug-In . SVG Version: 6.00 Build 0)  -->
<!DOCTYPE svg PUBLIC "-//W3C//DTD SVG 1.1//EN" "http://www.w3.org/Graphics/SVG/1.1/DTD/svg11.dtd">
<svg version="1.1" id="ARTWORK" xmlns="http://www.w3.org/2000/svg" xmlns:xlink="http://www.w3.org/1999/xlink" x="0px" y="0px"
	 width="1024px" height="768px" viewBox="0 0 1024 768" enable-background="new 0 0 1024 768" xml:space="preserve">
<g>
	<path fill="#3E373C" d="M195.157,364.412c0,30.267-24.555,54.823-54.816,54.823c-30.289,0-54.835-24.557-54.835-54.823
		c0-30.289,24.546-54.827,54.835-54.827C170.602,309.585,195.157,334.123,195.157,364.412"/>
	<g>
		<path fill="#FF7A00" d="M211.357,235.885l-18.513,34.712c-18.512-7.714-35.749-11.571-51.683-11.571
			c-27.265,0-51.429,8.872-72.509,26.613c-21.092,17.743-31.627,39.219-31.627,64.411v79.1H0V226.628h37.025v43.197
			C60.674,237.946,95.385,222,141.162,222C166.871,222,190.266,226.628,211.357,235.885z"/>
	</g>
	<g>
		<path fill="#3E373C" d="M69.653,489.013L88.166,454.3c18.514,7.716,35.749,11.571,51.682,11.571
			c27.264,0,51.429-8.871,72.509-26.611c21.092-17.743,31.628-39.22,31.628-64.411v-79.1h37.022V498.27h-37.022v-43.198
			c-23.649,31.879-58.361,47.826-104.138,47.826C114.142,502.898,90.746,498.27,69.653,489.013z"/>
	</g>
	<g>
		<path fill="#54565A" d="M316.099,301.811c0-11.4-0.2-21.2-0.8-30.199h15.4l0.8,18.999h0.6c4.4-13,15.2-21.199,27-21.199
			c1.8,0,3.2,0.2,4.8,0.399v16.601c-1.8-0.2-3.6-0.4-6-0.4c-12.399,0-21.2,9.399-23.6,22.399c-0.4,2.601-0.6,5.4-0.6,8.2v51.799
			h-17.6V301.811z"/>
		<path fill="#54565A" d="M389.5,323.211c0.4,23.6,15.4,33.399,33,33.399c12.6,0,20.4-2.2,26.8-5l3.2,12.601
			c-6.2,2.8-17,6.199-32.399,6.199c-29.6,0-47.599-19.8-47.599-48.799c0-29.2,17.399-52.199,45.599-52.199
			c31.6,0,39.799,27.8,39.799,45.599c0,3.601-0.2,6.2-0.6,8.2H389.5z M440.899,310.611c0.2-11.2-4.6-28.6-24.2-28.6
			c-18,0-25.6,16.399-27,28.6H440.899z"/>
		<path fill="#54565A" d="M563.296,226.412v116.999c0,8.6,0.2,18.399,0.8,24.999h-15.8l-0.8-16.8h-0.399c-5.4,10.8-17,19-32.8,19
			c-23.399,0-41.599-19.8-41.599-49.199c-0.2-32.399,20-51.999,43.398-51.999c15,0,25,7,29.2,14.6h0.399v-57.6H563.296z
			 M545.696,311.011c0-2.4-0.2-5.2-0.8-7.601c-2.6-11-12.199-20.199-25.399-20.199c-18.2,0-29,16-29,37.199
			c0,19.8,9.8,35.999,28.599,35.999c11.8,0,22.6-7.999,25.8-21.199c0.6-2.2,0.8-4.6,0.8-7.4V311.011z"/>
		<path fill="#54565A" d="M660.695,345.211c0,8.399,0.399,16.6,1.399,23.199h-15.799l-1.601-12.199h-0.6
			c-5.2,7.6-15.8,14.399-29.6,14.399c-19.6,0-29.6-13.8-29.6-27.8c0-23.399,20.8-36.199,58.199-35.999v-2c0-8-2.2-22.6-22-22.399
			c-9.2,0-18.6,2.6-25.399,7.199l-4-11.8c8-5,19.8-8.399,31.999-8.399c29.8,0,37,20.199,37,39.6V345.211z M643.495,319.01
			c-19.199-0.399-40.999,3-40.999,21.8c0,11.6,7.6,16.8,16.399,16.8c12.8,0,21-8,23.8-16.199c0.601-1.801,0.8-3.8,0.8-5.601V319.01z
			"/>
		<path fill="#54565A" d="M706.495,316.01h0.4c2.399-3.399,5.6-7.6,8.399-10.999l28.6-33.399h21l-37.399,39.799l42.6,56.999h-21.4
			l-33.199-46.399l-9,10v36.399h-17.6V226.412h17.6V316.01z"/>
		<path fill="#54565A" d="M803.895,248.412v23.2h25.199v13.399h-25.199v51.999c0,12,3.399,18.8,13.199,18.8
			c4.8,0,7.601-0.4,10.2-1.2l0.8,13.4c-3.399,1.199-8.8,2.399-15.6,2.399c-8.2,0-14.8-2.8-19-7.399c-4.8-5.4-6.8-14-6.8-25.399
			v-52.6h-15v-13.399h15v-17.8L803.895,248.412z"/>
		<path fill="#54565A" d="M887.093,370.61c-25.999,0-46.399-19.199-46.399-49.799c0-32.4,21.4-51.399,48-51.399
			c27.799,0,46.599,20.199,46.599,49.599c0,36-24.999,51.6-47.999,51.6H887.093z M887.893,357.41c16.8,0,29.399-15.8,29.399-37.799
			c0-16.4-8.199-37-28.999-37c-20.6,0-29.6,19.2-29.6,37.6c0,21.2,12,37.199,29,37.199H887.893z"/>
		<path fill="#54565A" d="M957.493,301.811c0-11.4-0.2-21.2-0.8-30.199h15.399l0.801,18.999h0.6c4.399-13,15.199-21.199,27-21.199
			c1.8,0,3.199,0.2,4.8,0.399v16.601c-1.801-0.2-3.601-0.4-6-0.4c-12.4,0-21.2,9.399-23.6,22.399c-0.4,2.601-0.601,5.4-0.601,8.2
			v51.799h-17.6V301.811z"/>
	</g>
	<g>
		<path fill="#54565A" d="M316.136,433.26h51.95v6.24h-44.461v41.81h40.873v6.24h-40.873v50.858h-7.488V433.26z"/>
		<path fill="#54565A" d="M410.984,540.125c-19.345,0-34.321-15.133-34.321-38.533c0-25.585,16.849-39.781,35.414-39.781
			c20.749,0,34.79,15.601,34.79,38.533c0,27.769-19.189,39.781-35.726,39.781H410.984z M411.452,533.885
			c15.601,0,27.925-14.04,27.925-33.229c0-13.729-7.645-32.604-27.457-32.604c-19.189,0-27.77,17.004-27.77,33.073
			c0,18.721,11.856,32.761,27.146,32.761H411.452z"/>
		<path fill="#54565A" d="M523.617,520.156c0,6.553,0.156,12.48,0.624,18.253h-7.021l-0.468-13.417h-0.312
			c-3.744,7.021-12.325,15.133-25.585,15.133c-9.517,0-25.585-4.836-25.585-33.073v-43.525h7.488v42.121
			c0,16.225,4.992,27.926,19.812,27.926c10.92,0,18.877-7.645,22.153-15.133c0.78-2.34,1.404-5.305,1.404-8.269v-46.646h7.488
			V520.156z"/>
		<path fill="#54565A" d="M548.729,481.467c0-6.864-0.155-12.013-0.624-17.94h7.021l0.468,13.416h0.312
			c4.056-8.424,13.572-15.132,25.74-15.132c7.177,0,26.209,3.588,26.209,31.669v44.93h-7.488v-44.306
			c0-13.729-5.304-26.053-20.748-26.053c-10.453,0-19.501,7.488-22.465,17.316c-0.469,1.716-0.937,4.212-0.937,6.552v46.49h-7.488
			V481.467z"/>
		<path fill="#54565A" d="M692.096,427.489v93.604c0,5.46,0.156,12.012,0.624,17.316h-6.708l-0.624-14.196h-0.312
			c-3.899,8.268-12.792,15.912-26.677,15.912c-18.564,0-32.293-15.444-32.293-37.753c-0.156-24.961,15.288-40.562,33.697-40.562
			c12.948,0,21.217,6.708,24.492,13.26h0.312v-47.581H692.096z M684.607,493.167c0-2.027-0.156-4.68-0.78-6.864
			c-2.496-9.984-11.388-18.252-23.557-18.252c-16.381,0-26.677,14.196-26.677,33.541c0,16.849,8.424,32.293,26.209,32.293
			c10.764,0,20.904-7.176,24.024-19.501c0.624-1.872,0.78-3.899,0.78-6.24V493.167z"/>
		<path fill="#54565A" d="M763.854,520.624c0,5.929,0.156,12.013,1.092,17.785h-6.864l-1.092-10.765h-0.312
			c-3.744,5.772-12.013,12.48-24.025,12.48c-15.133,0-21.997-10.608-21.997-20.593c0-17.316,15.133-27.769,45.71-27.457v-2.028
			c0-7.332-1.404-22.152-19.188-21.996c-6.553,0-13.417,1.716-18.877,5.616l-2.34-5.461c6.864-4.523,15.288-6.396,21.997-6.396
			c21.685,0,25.896,16.225,25.896,29.484V520.624z M756.365,498.315c-16.381-0.468-37.909,2.028-37.909,19.969
			c0,10.765,7.176,15.601,14.977,15.601c12.48,0,19.656-7.645,22.152-14.977c0.624-1.56,0.78-3.276,0.78-4.524V498.315z"/>
		<path fill="#54565A" d="M798.327,446.989v16.537H819.7v6.084h-21.373v48.674c0,9.517,2.964,15.444,10.921,15.444
			c3.9,0,6.708-0.468,8.58-1.092l0.936,5.616c-2.496,0.937-5.928,1.716-10.452,1.716c-5.46,0-9.984-1.716-12.792-5.147
			c-3.433-3.9-4.681-10.297-4.681-17.941v-47.27h-12.636v-6.084h12.636v-13.729L798.327,446.989z"/>
		<path fill="#54565A" d="M839.665,448.55c-3.432,0-5.772-2.964-5.772-6.396c0-3.432,2.652-6.552,6.085-6.552
			c3.432,0,5.928,2.964,5.928,6.552c0,3.433-2.34,6.396-6.084,6.396H839.665z M836.233,538.409v-74.883h7.488v74.883H836.233z"/>
		<path fill="#54565A" d="M896.919,540.125c-19.345,0-34.321-15.133-34.321-38.533c0-25.585,16.849-39.781,35.413-39.781
			c20.749,0,34.789,15.601,34.789,38.533c0,27.769-19.188,39.781-35.726,39.781H896.919z M897.387,533.885
			c15.601,0,27.925-14.04,27.925-33.229c0-13.729-7.644-32.604-27.457-32.604c-19.188,0-27.769,17.004-27.769,33.073
			c0,18.721,11.856,32.761,27.145,32.761H897.387z"/>
		<path fill="#54565A" d="M951.829,481.467c0-6.864-0.156-12.013-0.624-17.94h7.02l0.469,13.416h0.312
			c4.057-8.424,13.573-15.132,25.741-15.132c7.176,0,26.209,3.588,26.209,31.669v44.93h-7.488v-44.306
			c0-13.729-5.305-26.053-20.749-26.053c-10.452,0-19.501,7.488-22.465,17.316c-0.468,1.716-0.936,4.212-0.936,6.552v46.49h-7.488
			V481.467z"/>
	</g>
</g>
</svg>
