<?xml version="1.0" encoding="utf-8"?>
<!-- Generator: Adobe Illustrator 15.0.2, SVG Export Plug-In . SVG Version: 6.00 Build 0)  -->
<!DOCTYPE svg PUBLIC "-//W3C//DTD SVG 1.1//EN" "http://www.w3.org/Graphics/SVG/1.1/DTD/svg11.dtd">
<svg version="1.1"
	 id="Ebene_1" xmlns:svg="http://www.w3.org/2000/svg" xmlns:rdf="http://www.w3.org/1999/02/22-rdf-syntax-ns#" xmlns:cc="http://creativecommons.org/ns#" xmlns:dc="http://purl.org/dc/elements/1.1/"
	 xmlns="http://www.w3.org/2000/svg" xmlns:xlink="http://www.w3.org/1999/xlink" x="0px" y="0px" width="32px" height="32px"
	 viewBox="0 368 32 32" enable-background="new 0 368 32 32" xml:space="preserve">
<g id="g3027" transform="matrix(1,0,0,-1,30.372881,1426.9492)">
	<path d="M-5.23,1042.378v-5.714c0-1.417-0.503-2.629-1.509-3.635s-2.217-1.509-3.634-1.509H-25.23
		c-1.417,0-2.628,0.503-3.634,1.509s-1.509,2.218-1.509,3.635v14.856c0,1.417,0.503,2.628,1.509,3.634
		c1.006,1.006,2.217,1.509,3.634,1.509h12.571c0.167,0,0.304-0.054,0.411-0.161c0.107-0.107,0.161-0.244,0.161-0.411v-1.143
		c0-0.167-0.054-0.304-0.161-0.411c-0.107-0.107-0.244-0.161-0.411-0.161H-25.23c-0.786,0-1.458-0.28-2.018-0.839
		s-0.839-1.232-0.839-2.018v-14.856c0-0.786,0.28-1.459,0.839-2.019s1.232-0.839,2.018-0.839h14.857
		c0.786,0,1.458,0.279,2.018,0.839c0.559,0.56,0.839,1.232,0.839,2.019v5.714c0,0.167,0.054,0.303,0.161,0.411
		c0.107,0.107,0.244,0.161,0.411,0.161h1.143c0.167,0,0.304-0.054,0.411-0.161C-5.284,1042.681-5.23,1042.545-5.23,1042.378z
		 M1.627,1057.806v-9.143c0-0.31-0.113-0.578-0.339-0.804s-0.494-0.339-0.804-0.339c-0.309,0-0.577,0.113-0.803,0.339l-3.143,3.143
		l-11.643-11.644c-0.119-0.119-0.256-0.178-0.411-0.178s-0.292,0.059-0.411,0.178l-2.036,2.036
		c-0.119,0.119-0.179,0.256-0.179,0.411c0,0.154,0.06,0.291,0.179,0.41l11.643,11.643l-3.143,3.143
		c-0.226,0.226-0.339,0.494-0.339,0.803s0.113,0.578,0.339,0.804s0.494,0.339,0.804,0.339h9.143c0.31,0,0.578-0.113,0.804-0.339
		S1.627,1058.116,1.627,1057.806z"/>
</g>
</svg>
