<?xml version="1.0" encoding="utf-8"?>
<!-- Generator: Adobe Illustrator 15.0.2, SVG Export Plug-In . SVG Version: 6.00 Build 0)  -->
<!DOCTYPE svg PUBLIC "-//W3C//DTD SVG 1.1//EN" "http://www.w3.org/Graphics/SVG/1.1/DTD/svg11.dtd">
<svg version="1.1" id="Ebene_1" xmlns="http://www.w3.org/2000/svg" xmlns:xlink="http://www.w3.org/1999/xlink" x="0px" y="0px"
	 width="1894.5px" height="388.39px" viewBox="0 139.5 1894.5 388.39" enable-background="new 0 139.5 1894.5 388.39"
	 xml:space="preserve">
<title>dojo2-logo-white</title>
<path fill="#3E373C" d="M276.078,337.125c0,41.576-33.73,75.308-75.298,75.308c-41.607,0-75.325-33.732-75.325-75.308
	c0-41.607,33.718-75.314,75.325-75.314C242.348,261.811,276.078,295.518,276.078,337.125"/>
<g>
	<path fill="#FF7A00" d="M298.332,160.573l-25.43,47.682c-25.43-10.597-49.106-15.895-70.994-15.895
		c-37.452,0-70.646,12.187-99.603,36.557C73.332,253.289,58.86,282.79,58.86,317.395v108.656H8V147.857h50.86v59.338
		c32.485-43.791,80.166-65.695,143.048-65.695C237.222,141.5,269.36,147.857,298.332,160.573z"/>
</g>
<g>
	<path fill="#3E373C" d="M103.679,508.285l25.431-47.686c25.431,10.599,49.106,15.896,70.993,15.896
		c37.451,0,70.646-12.187,99.603-36.556c28.974-24.373,43.446-53.874,43.446-88.477V242.806h50.856V521h-50.856v-59.339
		c-32.486,43.791-80.167,65.696-143.049,65.696C164.791,527.357,132.654,521,103.679,508.285z"/>
</g>
<g>
	<path fill="#FFFFFF" d="M496,337.241c0.312-61.458,51.837-111.43,113.916-111.742c27.314,0,52.148,9,71.703,24.21
		c7.452,6.208,8.693,17.07,3.103,24.831c-6.207,7.76-17.69,9.001-24.831,3.415c-13.657-11.175-30.729-17.071-49.975-17.071
		c-21.418,0-41.281,8.69-55.872,22.349c-13.968,14.278-22.657,32.901-22.657,54.008c0,21.107,8.689,40.352,22.657,54.006
		c14.591,13.657,34.454,22.348,55.872,22.348c19.245,0,36.007-5.898,49.975-17.071c7.141-5.276,18.624-4.033,24.831,3.414
		c5.591,7.759,4.35,18.936-3.103,24.834c-19.555,15.21-44.389,24.209-71.703,24.209C547.837,448.981,496.312,399.005,496,337.241z"
		/>
	<path fill="#FFFFFF" d="M910.078,258.711c19.247,20.487,31.354,47.802,31.354,78.53s-12.106,58.351-31.354,78.531
		c-18.312,20.172-45.628,33.209-74.187,33.209c-29.802,0-57.119-13.037-76.055-33.209c-19.245-20.18-30.731-47.802-30.731-78.531
		s11.486-58.043,30.731-78.53c18.936-20.485,46.253-33.211,76.055-33.211C864.45,225.5,891.767,238.226,910.078,258.711z
		 M906.042,337.241c0-21.106-8.38-40.663-21.105-54.318c-13.034-13.968-30.421-22.038-49.045-22.038
		c-19.868,0-37.253,8.07-50.291,22.038c-13.037,13.656-21.107,33.212-21.107,54.318c0,21.107,8.07,40.664,21.107,54.006
		c13.038,13.968,30.423,22.348,50.291,22.348c18.624,0,36.011-8.38,49.045-22.348C897.662,377.905,906.042,358.348,906.042,337.241z
		"/>
	<path fill="#FFFFFF" d="M1060.927,445.88c-0.619-0.622-1.24-0.931-2.173-1.554c0-0.307-0.31-0.307-0.31-0.934
		c-0.622-0.621-1.24-1.237-1.552-1.859c0,0-0.312,0-0.312-0.311c-0.31-0.62-0.931-1.863-1.554-2.484L978.979,257.47
		c-3.726-8.381,0.31-18.625,9.315-22.04c8.38-3.723,18.312,0.312,22.036,9.004l60.528,143.711l60.533-143.711
		c3.724-8.692,13.967-12.727,22.347-9.004c8.691,3.416,12.726,13.659,9.314,22.04l-76.673,181.268
		c-0.312,0.621-0.619,1.864-1.241,2.484c0,0.311,0,0.311-0.311,0.311c-0.311,0.622-1.24,1.238-1.551,1.859
		c-0.314,0.627-0.314,0.627-0.622,0.934c-0.622,0.623-1.24,0.932-1.861,1.554c0,0,0,0-0.621,0.312
		c-0.62,0.308-1.553,1.235-2.483,1.548c-0.312,0-0.312,0-0.621,0.313c-0.932,0-1.551,0.312-2.486,0.62c0,0-0.308,0-0.617,0
		c-1.24,0.309-2.174,0.309-3.106,0.309c-0.931,0-2.172,0-3.104-0.309c0,0-0.307,0-0.618,0c-0.623-0.309-1.865-0.62-2.484-0.62
		c0-0.313-0.31-0.313-0.31-0.313s0,0-0.311,0c-0.623-0.312-1.865-1.24-2.795-1.859C1061.237,445.88,1061.237,445.88,1060.927,445.88
		z"/>
	<path fill="#FFFFFF" d="M1209.604,248.779c0-9.622,7.451-17.071,17.072-17.071c9.311,0,17.383,7.449,17.383,17.071v183.13
		c0,9.624-8.072,17.072-17.383,17.072c-9.621,0-17.072-7.448-17.072-17.072V248.779z"/>
	<path fill="#FFFFFF" d="M1302.09,431.909v-183.13c0-9.622,7.454-17.071,17.075-17.071h36.629
		c59.908,0,108.325,48.732,108.325,108.327c0,60.213-48.417,108.946-108.325,108.946h-36.629
		C1309.544,448.981,1302.09,441.222,1302.09,431.909z M1336.55,414.529h19.244c40.972-0.311,73.874-33.212,73.874-74.494
		c0-40.662-32.902-73.875-73.874-73.875h-19.244V414.529z"/>
	<path fill="#FFFFFF" d="M1513.461,354.002c0-10.241,8.381-18.622,18.313-18.622h58.353c9.935,0,18.314,8.381,18.314,18.622
		c0,9.933-8.38,18.312-18.314,18.312h-58.353C1521.842,372.314,1513.461,363.934,1513.461,354.002z"/>
	<path fill="#FFFFFF" d="M1631.712,257.47l13.657-8.069c2.173-1.244,4.349-0.934,5.59,1.239c1.239,1.864,0.309,4.347-1.55,5.587
		l-13.663,8.072c-0.929,0.309-1.239,0.62-1.858,0.62c-1.864,0-3.105-0.62-3.726-1.863
		C1628.917,260.885,1629.854,258.711,1631.712,257.47z M1671.134,243.192l-7.758,4.656c-0.622,0.31-1.554,0.62-1.864,0.62
		c-1.553,0-2.793-0.62-3.723-1.862c-1.247-2.171-0.312-4.344,1.548-5.588l12.728-7.447c0.93-0.932,1.864-1.553,3.104-1.553
		c2.482,0,4.034,2.173,4.034,4.035v16.14c0,2.483-1.552,4.035-4.034,4.035c-2.175,0-4.035-1.552-4.035-4.035V243.192z
		 M1671.134,268.334c0-2.173,1.86-4.035,4.035-4.035c2.482,0,4.034,1.861,4.034,4.035v16.141c0,2.172-1.552,3.725-4.034,3.725
		c-2.175,0-4.035-1.553-4.035-3.725V268.334z M1671.134,300.304c0-1.862,1.86-4.035,4.035-4.035c2.482,0,4.034,2.173,4.034,4.035
		v16.141c0,2.484-1.552,4.034-4.034,4.034c-2.175,0-4.035-1.55-4.035-4.034V300.304z M1671.134,332.586
		c0-2.172,1.86-4.036,4.035-4.036c2.482,0,4.034,1.863,4.034,4.036v16.142c0,2.17-1.552,3.722-4.034,3.722
		c-2.175,0-4.035-1.551-4.035-3.722V332.586z M1671.134,364.556c0-1.862,1.86-4.037,4.035-4.037c2.482,0,4.034,2.174,4.034,4.037
		v16.141c0,2.482-1.552,4.034-4.034,4.034c-2.175,0-4.035-1.552-4.035-4.034V364.556z M1671.134,396.835
		c0-2.171,1.86-4.034,4.035-4.034c2.482,0,4.034,1.863,4.034,4.034v16.143c0,2.171-1.552,3.727-4.034,3.727
		c-2.175,0-4.035-1.556-4.035-3.727V396.835z M1671.134,428.809c0-1.866,1.86-4.037,4.035-4.037c2.482,0,4.034,2.171,4.034,4.037
		v16.14c0,2.478-1.552,4.032-4.034,4.032c-2.175,0-4.035-1.555-4.035-4.032V428.809z"/>
	<path fill="#FFFFFF" d="M1744.067,302.167c0-5.588,0.933-11.174,1.866-16.761c0.621-1.864,2.79-3.105,4.965-2.483
		c2.171,0.311,3.414,2.483,3.104,4.655c-1.245,4.656-2.177,9.311-2.177,14.589c0,2.482,0.621,5.898,0.932,8.38
		c0,2.173-1.242,4.035-3.724,4.345h-0.311c-1.86,0-3.724-1.551-3.724-3.413C1744.378,308.375,1744.067,305.271,1744.067,302.167z
		 M1748.724,327.619c-0.618-1.863,0.311-4.346,2.487-5.277c1.858-0.621,4.342,0.62,4.963,2.484
		c2.172,4.656,4.348,9.001,7.141,13.035c1.24,1.863,0.929,4.347-1.241,5.279c-0.311,0.62-1.245,0.93-1.864,0.93
		c-1.552,0-2.792-0.93-3.414-1.553C1753.383,337.862,1751.211,333.207,1748.724,327.619z M1751.826,270.196
		c2.486-4.966,5.591-9.932,9.002-13.657c1.557-2.172,4.038-2.172,5.9-0.62c1.55,1.241,1.55,3.725,0.62,5.587
		c-3.725,3.724-6.521,8.069-8.38,12.104c-0.623,1.241-2.174,2.173-3.416,2.173c-0.931,0-1.24,0-2.17-0.311
		C1751.516,274.541,1750.898,271.748,1751.826,270.196z M1767.66,354.623c-1.552-1.551-1.552-3.725,0-5.586
		c1.239-1.554,4.033-1.864,5.584-0.309c3.414,3.101,7.451,6.206,12.109,8.38c1.549,1.241,2.479,3.412,1.549,5.586
		c-0.928,0.929-2.482,1.862-3.413,1.862c-0.932,0-1.243,0-2.172-0.312C1776.658,361.452,1772.006,358.348,1767.66,354.623z
		 M1773.557,245.054c4.346-3.103,9.001-5.897,14.59-7.761c1.861-1.241,4.345,0,4.968,1.864c0.929,1.861-0.312,4.345-2.176,5.277
		c-4.964,1.861-9.001,4.033-13.036,6.827c-0.311,0.931-1.244,0.931-2.484,0.931c-1.239,0-2.174-0.31-3.103-1.552
		C1771.073,248.468,1771.693,246.295,1773.557,245.054z M1788.768,441.222h1.24c1.86-0.62,4.035,1.549,4.035,3.414
		c0.311,2.483-1.552,4.036-3.725,4.345h-1.551c-1.865,0-3.414-1.555-3.729-4.032C1785.038,443.081,1786.59,441.222,1788.768,441.222
		z M1797.148,370.142c-2.485-0.619-3.727-2.483-3.105-4.965c0.62-1.864,2.794-3.105,4.965-2.483
		c4.656,0.929,9.623,1.862,14.591,1.862c1.86,0,4.034,1.862,4.034,4.035c0,2.172-2.174,3.723-4.034,3.723
		C1807.699,372.314,1802.113,371.694,1797.148,370.142z M1803.664,232.638c3.724-0.621,7.138-0.931,10.86-0.931
		c2.177,0,4.347,0.31,6.214,0.31c1.862,0,3.409,2.173,3.409,4.346c-0.309,2.173-2.169,3.725-4.343,3.725
		c-1.86-0.621-3.413-0.621-5.28-0.621c-3.41,0-6.516,0.621-9.619,0.931h-0.312c-1.86,0-3.412-1.241-4.034-3.105
		C1800.251,234.812,1801.806,232.949,1803.664,232.638z M1804.905,439.049c5.28-0.93,9.934-2.792,14.278-4.658
		c1.865-1.236,4.347,0,4.964,1.866c0.936,2.17,0,4.346-1.858,5.276c-5.276,1.859-10.246,4.035-15.831,4.966h-0.617
		c-2.177,0-3.728-0.931-4.035-3.106C1801.495,441.533,1802.733,439.67,1804.905,439.049z M1828.186,363.004
		c4.967-0.931,9.312-2.794,13.969-4.655c2.173-1.241,4.345-0.621,5.277,1.551c0.617,1.863,0,4.345-1.863,5.278
		c-4.966,2.482-10.244,4.346-15.52,5.586h-1.245c-1.549,0-3.101-1.24-3.41-3.104
		C1824.461,365.797,1826.326,363.313,1828.186,363.004z M1832.22,426.943c3.725-2.793,7.758-6.206,11.175-9.929
		c1.554-1.556,4.037-1.556,5.59,0c1.552,1.859,1.552,4.035,0,5.584c-4.036,4.032-7.762,7.448-12.728,10.556
		c-0.312,0.931-0.933,0.931-1.862,0.931c-1.554,0-2.795-0.311-3.415-1.553C1829.74,430.668,1830.049,428.186,1832.22,426.943z
		 M1834.395,242.571c-2.175-0.309-3.107-2.482-2.795-4.656c0.93-2.172,3.105-3.103,5.279-2.793
		c4.967,2.172,10.24,4.346,14.896,7.141c1.863,1.24,2.172,3.724,1.243,5.586c-0.622,1.242-2.173,1.863-3.106,1.863
		c-0.928,0-1.863-0.309-2.172-0.621C1843.395,246.606,1839.051,244.434,1834.395,242.571z M1853.019,405.838
		c2.481-4.346,5.275-8.692,7.761-13.037c0.617-1.863,3.102-2.792,4.963-1.863c2.173,0.931,2.794,3.416,2.173,5.275
		c-2.792,4.968-5.585,9.625-8.688,13.969c-0.311,0.935-1.862,1.552-3.104,1.552c-0.932,0-1.553,0-2.175-0.617
		C1852.088,409.562,1851.775,407.391,1853.019,405.838z M1854.569,349.967c3.725-2.794,7.452-6.827,10.245-10.552
		c0.928-1.553,3.722-1.861,5.275-0.932c1.553,1.552,2.17,4.035,0.93,5.587c-3.104,4.658-7.139,8.692-11.485,12.105
		c-0.618,0.622-1.55,0.933-2.17,0.933c-1.242,0-2.483-0.311-3.417-1.243C1852.396,354.002,1853.019,351.517,1854.569,349.967z
		 M1859.227,258.401c-1.553-1.553-1.553-4.346,0-5.588c1.553-1.551,4.032-1.551,5.588,0c3.722,4.035,7.445,8.38,10.239,13.038
		c0.934,1.863,0.312,4.345-1.239,5.587c-0.93,0.31-1.555,0.31-2.172,0.31c-1.553,0-2.481-0.621-3.417-1.861
		C1865.742,265.851,1862.64,261.816,1859.227,258.401z M1866.984,378.523c1.552-4.656,3.105-9.62,4.346-14.278
		c0.93-2.482,2.795-3.725,5.279-2.792c1.861,0.31,3.102,2.792,2.48,4.655c-1.55,4.966-3.103,10.244-4.965,15.209
		c-0.311,1.551-1.865,2.792-3.416,2.792c-0.619,0-0.927-0.311-1.548-0.311C1866.984,382.868,1866.365,380.697,1866.984,378.523z
		 M1872.26,326.688c1.865-4.345,3.106-9.312,4.35-13.967c0-2.484,2.173-3.725,4.345-3.104c2.173,0.309,3.412,2.172,3.103,4.345
		c-0.93,5.278-2.48,10.865-4.967,15.83c0,0.311-0.308,0.622-0.308,0.93c0.616-0.308,1.549-0.619,2.482-0.308
		c1.862,0,3.725,1.861,3.413,4.345c-0.312,4.967-1.242,10.554-1.862,15.52c-0.311,2.171-2.484,3.104-4.033,3.104h-0.623
		c-2.484-0.31-3.722-2.174-3.105-4.345c0.621-4.967,1.556-9.934,1.866-15.209c0-0.621,0.311-1.553,0.93-2.172
		c-0.619,0.308-1.554,0.619-2.175,0.619c-0.309,0-1.237,0-1.55-0.311C1872.26,331.034,1871.33,328.862,1872.26,326.688z
		 M1874.125,283.542c-0.311-2.483,0.929-4.344,2.795-4.966c1.862-0.93,4.345,0.311,4.964,2.173
		c1.552,5.587,2.482,11.174,2.794,16.452c0.312,2.483-1.242,4.035-3.413,4.346h-0.311c-2.172,0-3.724-1.552-4.034-3.725
		C1876.92,292.854,1875.675,287.888,1874.125,283.542z"/>
</g>
</svg>
